<svg xmlns="http://www.w3.org/2000/svg" viewBox="0 0 120 50" fill="none">
  <path d="M22.3 13.6c-.6.7-1.5 1.3-2.5 1.2-.1-1 .4-2 .9-2.7.6-.7 1.6-1.2 2.4-1.3.1 1.1-.3 2.1-.8 2.8zm.8 1.4c-1.4-.1-2.6.8-3.2.8-.7 0-1.7-.7-2.8-.7-1.4 0-2.8.8-3.5 2.1-1.5 2.6-.4 6.5 1.1 8.6.7 1 1.6 2.2 2.7 2.1 1.1 0 1.5-.7 2.8-.7 1.3 0 1.6.7 2.8.7 1.2 0 1.9-1 2.6-2.1.8-1.2 1.2-2.3 1.2-2.4 0 0-2.3-.9-2.3-3.5 0-2.2 1.8-3.2 1.9-3.3-1-1.5-2.7-1.7-3.3-1.6z" fill="#A2AAAD"/>
  <text x="32" y="29" font-family="system-ui" font-weight="600" font-size="11" fill="#A2AAAD">Pay</text>
</svg>
